<svg width="89" height="100" viewBox="0 0 89 100" fill="none" xmlns="http://www.w3.org/2000/svg">
<path d="M5.80216 12.0362C2.20367 15.2706 0.566351 20.0982 0.0804015 24.1165C-0.361845 27.7734 1.06453 31.5298 4.14568 33.5485C6.21348 34.9033 8.89357 35.7636 11.9138 34.6971C19.044 32.1792 18.0254 27.1434 19.5533 25.6326C24.0909 21.146 30.5047 18.6397 36.8614 18.0818C42.6188 17.5764 49.5781 18.3445 53.6766 22.1075C59.3808 27.3448 58.0906 32.347 56.7324 34.1935C55.2045 36.8793 50.6208 42.4523 44.5092 43.258C38.3975 44.0638 35.851 45.2724 35.3417 45.7759C34.4929 46.2795 33.3045 48.0924 35.3417 51.3154C37.3789 54.5383 41.9627 54.3369 43.9999 53.8333C51.3338 53.4304 56.5627 57.3584 58.2603 59.3727C60.2976 61.387 63.3534 66.6243 59.279 71.4587C55.2045 76.2931 46.3766 79.1803 42.472 80.0196C33.9157 82.4368 30.0789 80.3553 29.2301 79.0125C26.7854 74.1781 23.7975 72.6337 22.6092 72.4659C21.4208 72.1301 17.9236 72.1637 13.4417 74.9838C8.95984 77.8039 7.83937 81.5304 7.83937 83.0411C7.6696 85.2233 9.16356 90.7963 16.4975 95.6307C23.8315 100.465 38.9068 100.331 45.5278 99.6594C56.9362 98.4508 67.258 91.7699 70.9929 88.5805C74.2185 86.3983 81.0771 79.6168 82.7069 69.948C84.3366 60.2791 79.6511 53.4976 77.1045 51.3154C78.9962 49.9125 80.6192 48.5889 81.9908 47.3837C86.2274 43.6613 89.1763 38.5309 88.8804 32.899C88.7023 29.5077 87.8619 25.4403 85.7627 21.1003C81.2808 11.8344 69.2952 5.48946 63.8627 3.47523C47.565 -2.56777 30.2487 0.621591 23.6278 2.97165C20.4022 3.81095 12.0175 6.44957 5.80216 12.0362Z" fill="#7872B9"/>
</svg>
