<svg width="410" height="350" viewBox="0 0 410 350" fill="none" xmlns="http://www.w3.org/2000/svg">
<path fill-rule="evenodd" clip-rule="evenodd" d="M197.149 349.86C304.32 349.86 391.688 340.488 391.688 328.444C391.688 316.401 304.32 307.029 197.149 307.029C89.9775 307.029 2.65625 316.636 2.65625 328.444C2.65625 340.253 90.0241 349.86 197.149 349.86Z" fill="#DFEBFF"/>
<path fill-rule="evenodd" clip-rule="evenodd" d="M348.307 202.859C357.346 198.923 363.777 194.893 373.841 195.127C377.437 195.221 381.007 195.772 384.465 196.767C389.498 200.047 390.476 203.046 398.444 205.811C401.659 206.936 404.455 207.123 398.724 209.279C396.509 209.923 394.163 209.963 391.928 209.394C389.693 208.826 387.648 207.67 386.003 206.045C388.885 208.685 390.955 212.1 391.967 215.886C394.037 215.469 396.15 215.312 398.258 215.417C400.494 210.075 398.258 210.731 403.616 209.091C403.771 212.286 403.263 215.477 402.125 218.463L397.466 220.853C400.634 222.353 403.244 220.853 405.387 221.837C407.06 222.474 408.504 223.6 409.534 225.071C410.979 227.32 409.534 227.32 407.717 226.711C406.826 226.371 405.866 226.259 404.921 226.383C406.239 227.319 407.233 228.646 407.763 230.178C409.441 234.865 406.645 232.662 404.641 231.491C393.598 225.164 390.663 227.929 381.996 224.602C377.027 222.035 372.534 218.627 368.716 214.527C364.056 210.357 363.544 212.231 358.325 216.73C351.678 222.815 345.595 229.497 340.152 236.692L348.307 202.859Z" fill="#FFDDDE"/>
<path fill-rule="evenodd" clip-rule="evenodd" d="M208.285 327.882C203.066 333.88 160.058 343.955 150.692 343.955C145.926 343.939 141.285 342.413 137.43 339.596C133.574 336.778 130.698 332.811 129.211 328.257C125.437 314.199 122.454 309.513 137.365 312.418C149.62 315.042 160.663 320.478 179.302 320.291C187.503 320.291 195.61 314.058 199.478 313.918C200.363 313.824 205.023 326.757 207.958 327.882C208.238 327.882 208.378 327.882 208.285 327.882Z" fill="#FCD2D3"/>
<path fill-rule="evenodd" clip-rule="evenodd" d="M206.884 318.979C241.412 318.979 269.556 304.921 269.556 287.582C269.556 270.244 241.598 256.186 206.884 256.186C172.17 256.186 144.445 270.291 144.445 287.582C144.445 304.874 172.403 318.979 206.884 318.979Z" fill="#7872B8" stroke="black" stroke-width="0.22" stroke-miterlimit="22.93"/>
<path fill-rule="evenodd" clip-rule="evenodd" d="M198.823 314.527C192.346 320.853 205.3 336.926 214.153 336.738C234.143 329.053 305.109 308.622 313.077 291.753C317.867 281.305 318.872 269.502 315.92 258.388C310.608 240.347 292.994 244.892 277.804 249.391C264.477 253.327 213.035 302.156 198.823 314.527Z" fill="#4B4680"/>
<path fill-rule="evenodd" clip-rule="evenodd" d="M183.679 327.882C188.897 333.88 231.906 343.955 241.272 343.955C246.038 343.939 250.678 342.413 254.533 339.596C258.389 336.778 261.265 332.811 262.752 328.257C266.527 314.199 269.509 309.513 254.598 312.418C242.343 315.042 231.3 320.478 212.661 320.291C204.414 320.291 196.353 314.058 192.485 313.918C191.414 313.918 186.847 326.617 183.865 327.554C183.725 327.882 183.585 327.882 183.679 327.882Z" fill="#FFDDDE"/>
<path fill-rule="evenodd" clip-rule="evenodd" d="M203.485 313.449C209.962 319.729 197.055 335.802 188.155 335.614C168.165 327.929 97.1992 307.498 89.2778 290.628C84.4528 280.208 83.43 268.413 86.3889 257.311C91.7008 239.222 109.314 243.768 124.505 248.266C137.831 252.203 189.273 301.078 203.485 313.449Z" fill="#958FD3"/>
<path fill-rule="evenodd" clip-rule="evenodd" d="M61.6917 206.795C52.6521 202.859 46.2684 198.876 36.157 199.063C32.5592 199.173 28.9896 199.74 25.5331 200.75C20.5007 203.983 19.5222 206.982 11.5542 209.747C8.29248 210.919 5.5433 211.059 11.2746 213.215C13.4651 213.843 15.7816 213.879 17.9904 213.32C20.1992 212.76 22.2223 211.625 23.8556 210.028C20.9827 212.747 18.9588 216.248 18.0311 220.103C15.9681 219.64 13.8489 219.482 11.7406 219.635C9.50398 214.293 11.7406 214.949 6.42863 213.262C6.24087 216.454 6.73336 219.649 7.87311 222.634L12.5327 225.024C9.36419 226.476 6.7548 225.024 4.61138 225.961C2.95274 226.645 1.51666 227.781 0.464313 229.241C-0.980169 231.49 0.464314 231.444 2.28157 230.834C3.1939 230.518 4.16403 230.406 5.12393 230.506C3.855 231.411 2.89484 232.687 2.37476 234.161C0.743891 238.847 3.49307 236.645 5.5433 235.52C16.5866 229.147 19.5222 231.959 28.1425 228.585C33.1148 226.101 37.6232 222.772 41.469 218.744C46.1286 214.574 46.5946 216.401 51.8599 220.947C58.4362 226.96 64.4706 233.546 69.8927 240.628L61.6917 206.795Z" fill="#FFDDDE"/>
<path fill-rule="evenodd" clip-rule="evenodd" d="M61.3648 206.045C74.3185 211.434 99.6668 213.731 102.183 211.997C109.452 190.956 139.134 121.134 160.055 120.713C185.078 120.244 215.971 121.697 240.993 121.697C262.754 121.697 295.79 192.971 301.568 212.044C301.788 213.639 302.627 215.082 303.902 216.056C305.177 217.031 306.784 217.459 308.371 217.245C315.128 216.73 355.899 197.283 359.627 198.501C367.688 200.516 360.093 227.133 348.304 237.77C342.293 243.159 302.966 248.267 295.464 247.142C282.697 245.502 272.399 235.474 252.782 215.183C252.782 235.521 268.531 262.044 249.613 271.416C239.362 276.617 180.511 282.24 164.669 276.711C139.413 267.948 157.493 252.39 157.493 237.629C157.493 234.443 157.027 207.967 154.744 208.857C148.593 211.106 141.137 243.065 111.828 247.329C106.656 248.079 101.065 248.079 92.3978 249.251C56.6119 253.984 35.4107 195.127 61.3648 206.045Z" fill="#FFCE70"/>
<path fill-rule="evenodd" clip-rule="evenodd" d="M153.487 78.3509C153.168 82.2341 151.99 85.9966 150.039 89.3631C144.355 97.6574 152.788 102.062 150.039 112.278C148.362 118.838 154.14 123.805 161.316 120.994C175.294 115.464 181.725 122.54 188.062 115.089C193.327 108.857 201.575 114.058 207.958 117.76C214.342 121.462 222.683 118.651 229.439 119.588C235.45 120.385 239.784 123.805 239.131 137.536C238.525 149.954 225.805 150.656 236.382 159.513C239.131 161.809 242.02 164.199 241.042 167.807C240.212 171.076 238.614 174.098 236.382 176.617C231.722 182.287 241.042 189.644 244.397 186.458C246.074 184.818 248.217 178.726 254.927 180.834C260.379 182.521 258.748 174.04 258.096 168.51C257.444 162.981 259.634 163.543 263.361 159.138C268.766 152.671 259.634 155.342 264.526 138.848C267.881 127.554 254.182 120.806 255.486 115.417C258.049 104.546 252.458 102.906 249.755 97.1419C244.257 85.1456 257.397 81.8186 243.185 66.2141C241.228 64.0116 240.11 59.7005 240.11 50.3753C240.11 27.2731 237.081 35.1925 228.414 26.9451C222.823 21.2281 219.561 6.37339 202.693 11.5749C190.112 15.4174 198.406 14.2459 183.589 14.6208C170.215 14.9488 168.631 28.6789 166.441 29.8036C159.126 34.1147 157.122 37.5824 157.122 40.8157C157.122 44.0491 158.706 48.8289 158.66 52.5777C158.66 53.9366 154 58.3884 151.81 61.9498C149.62 65.5112 153.767 70.8064 153.487 78.3509Z" fill="#4B4680"/>
<path fill-rule="evenodd" clip-rule="evenodd" d="M187.827 102.952C187.461 106.998 186.648 110.99 185.404 114.855C182.143 121.087 166.16 116.261 166.16 121.415C166.16 130.553 191.369 159.747 203.437 158.904C216.577 157.873 230.603 140.16 234.657 128.866C236.474 123.852 236.381 122.962 234.936 121.65C231.768 118.698 222.681 120.385 219.047 116.261C216.664 111.967 215.443 107.12 215.506 102.203C220.312 98.1435 224.151 93.051 226.74 87.3008C229.329 81.5506 230.601 75.2893 230.463 68.9787C230.465 67.1943 230.372 65.411 230.183 63.6366C228.212 63.5575 226.264 63.1783 224.405 62.512C216.344 59.6067 217.136 57.3105 213.642 50.7969C212.057 47.7978 210.007 45.5017 207.072 47.0949C205.489 47.99 203.739 48.5432 201.932 48.719C200.125 48.8949 198.301 48.6896 196.578 48.1162C194.854 47.5428 193.268 46.614 191.922 45.3892C190.576 44.1644 189.499 42.6705 188.759 41.0031C187.175 38.0978 183.68 42.2215 180.092 45.6891C172.87 52.9525 171.659 57.9197 171.659 68.8382C171.47 75.4066 172.838 81.9259 175.649 87.8577C178.461 93.7894 182.635 98.9635 187.827 102.952Z" fill="#FCD2D3"/>
<path fill-rule="evenodd" clip-rule="evenodd" d="M219.001 13.449C252.55 19.822 236.66 29.9439 231.908 36.5043C248.17 43.9551 261.03 35.1922 250.546 56.6543C245.048 67.9007 276.267 86.926 249.102 101.406C248.636 121.134 256.65 107.217 241.506 125.633C241.161 126.531 240.481 127.258 239.611 127.661C238.741 128.063 237.75 128.109 236.847 127.788C235.945 127.45 235.211 126.77 234.802 125.894C234.392 125.018 234.34 124.016 234.657 123.102C237.965 116.542 244.675 117.385 243.324 110.356C238.385 84.4893 255.206 100.984 252.27 81.912C249.241 61.9495 234.89 81.3497 247.098 47.7508L239.736 45.314C207.911 37.3478 231.442 34.255 232.234 25.3984C230.976 22.8211 219.979 21.1341 217.836 20.7124C216.964 20.4676 216.213 19.9087 215.725 19.1423C215.237 18.3759 215.047 17.4556 215.192 16.5573C215.336 15.659 215.804 14.8455 216.506 14.2722C217.209 13.6988 218.097 13.4058 219.001 13.449Z" fill="#4B4680"/>
<path fill-rule="evenodd" clip-rule="evenodd" d="M29.3993 145.783C32.4747 145.408 37.1343 146.954 37.5536 151.031C37.973 155.108 33.8259 157.732 30.7506 158.248C29.875 158.484 28.9608 158.54 28.0631 158.412C27.1654 158.283 26.303 157.973 25.5278 157.5C24.7526 157.027 24.0808 156.401 23.5529 155.66C23.025 154.918 22.6521 154.077 22.4565 153.187C22.4304 151.287 23.1405 149.452 24.4364 148.07C25.7323 146.688 27.5123 145.868 29.3993 145.783ZM38.1594 163.543C36.2955 163.965 35.6898 161.809 37.6934 161.387C39.6971 160.966 40.1164 163.074 38.1594 163.543ZM20.9654 130.319C20.6166 130.347 20.2658 130.305 19.933 130.196C19.6003 130.088 19.292 129.914 19.0259 129.686C18.7598 129.457 18.5411 129.178 18.3821 128.865C18.2232 128.551 18.1273 128.209 18.0997 127.859C18.0722 127.508 18.1136 127.155 18.2217 126.82C18.3297 126.486 18.5022 126.176 18.7294 125.908C18.9565 125.641 19.2339 125.421 19.5456 125.261C19.8573 125.101 20.1972 125.004 20.546 124.977C20.8948 124.949 21.2456 124.991 21.5784 125.099C21.9112 125.208 22.2194 125.382 22.4855 125.61C22.7516 125.838 22.9704 126.117 23.1293 126.431C23.2882 126.744 23.3842 127.086 23.4117 127.437C23.4392 127.788 23.3978 128.141 23.2898 128.475C23.1817 128.81 23.0092 129.12 22.782 129.387C22.5549 129.655 22.2775 129.875 21.9658 130.035C21.6541 130.195 21.3142 130.291 20.9654 130.319ZM19.1015 90.5344C18.2069 90.4579 17.3361 90.204 16.5394 89.7874C15.7428 89.3708 15.036 88.7997 14.4599 88.107C13.8838 87.4144 13.4497 86.6139 13.1827 85.7517C12.9157 84.8896 12.8211 83.9828 12.9043 83.0836C12.9943 82.2056 13.2688 81.3567 13.7095 80.5934C14.1503 79.83 14.7472 79.1695 15.4609 78.6556C16.1745 78.1416 16.9886 77.786 17.8492 77.6123C18.7098 77.4386 19.5973 77.4507 20.4528 77.6478C22.1803 77.9323 23.7448 78.8419 24.8519 80.2055C25.959 81.5692 26.5322 83.2927 26.4637 85.0518C26.1991 86.7552 25.2784 88.2854 23.9006 89.3114C22.5229 90.3374 20.7989 90.7768 19.1015 90.5344ZM65.6978 1.49975C64.1601 0.703123 63.9737 -0.515246 66.0239 0.23452C68.0742 0.984285 67.515 2.3901 65.6978 1.49975ZM31.3563 82.8493C29.3993 82.5213 29.7721 79.8971 31.6825 80.272C33.593 80.6469 33.3134 83.2242 31.3563 82.8493ZM59.7334 24.555C58.4526 23.5988 57.5554 22.2122 57.2048 20.6472C56.8542 19.0822 57.0736 17.4426 57.823 16.0265C58.1433 15.3691 58.604 14.7911 59.1723 14.3338C59.7406 13.8764 60.4024 13.551 61.1103 13.3809C61.8182 13.2108 62.5547 13.2001 63.2673 13.3496C63.9798 13.4991 64.6506 13.8051 65.2318 14.2458C66.5431 15.0961 67.4934 16.4062 67.8981 17.9216C68.3029 19.4371 68.1331 21.0497 67.4218 22.4463C67.0946 23.1254 66.6269 23.7264 66.05 24.2089C65.473 24.6914 64.8002 25.0443 64.0766 25.244C63.353 25.4437 62.5952 25.4855 61.8542 25.3667C61.1132 25.2479 60.406 24.9711 59.78 24.555H59.7334ZM40.862 39.6909C41.7473 40.347 43.0054 42.034 42.3065 43.2523C41.6075 44.4707 39.7903 43.5803 38.9981 43.2523C38.206 42.9243 36.7149 41.1905 37.4139 39.9721C38.1128 38.7537 39.9767 39.2692 40.862 39.9721V39.6909ZM25.1125 92.2683C27.7452 92.5448 30.1844 93.7872 31.9637 95.7582C33.7431 97.7292 34.7378 100.29 34.7579 102.952C34.8065 103.435 34.8065 103.922 34.7579 104.405C34.0327 106.667 32.5723 108.617 30.6116 109.943C28.6508 111.269 26.3037 111.893 23.9476 111.715C21.4622 111.775 19.0413 110.916 17.1435 109.301C15.2457 107.686 14.0026 105.427 13.6498 102.952C13.6021 102.407 13.6021 101.858 13.6498 101.312C13.764 99.9507 14.1602 98.6281 14.8131 97.4297C15.466 96.2313 16.361 95.1835 17.4406 94.3538C18.5202 93.5241 19.7605 92.9307 21.0818 92.6119C22.403 92.2931 23.776 92.2558 25.1125 92.5026V92.2683ZM35.55 137.254C36.0643 137.152 36.5935 137.154 37.1071 137.26C37.6206 137.365 38.1082 137.572 38.5416 137.869C38.9751 138.165 39.3457 138.545 39.632 138.987C39.9183 139.428 40.1147 139.922 40.2096 140.441C40.2096 142.737 38.0196 144.143 36.249 144.33C35.7366 144.453 35.2045 144.468 34.6862 144.374C34.1679 144.28 33.6744 144.079 33.2368 143.784C32.7993 143.49 32.4271 143.107 32.1436 142.661C31.86 142.214 31.6713 141.714 31.5893 141.19C31.4029 138.801 33.7328 137.395 35.55 137.254Z" fill="#CCE0FF"/>
<path fill-rule="evenodd" clip-rule="evenodd" d="M369.367 145.783C366.245 145.408 361.632 146.954 361.166 151.031C360.7 155.108 364.94 157.732 367.969 158.248C368.844 158.484 369.759 158.54 370.656 158.412C371.554 158.283 372.416 157.973 373.192 157.5C373.967 157.027 374.639 156.401 375.167 155.66C375.694 154.918 376.067 154.077 376.263 153.187C376.301 151.292 375.602 149.457 374.313 148.073C373.025 146.69 371.25 145.868 369.367 145.783ZM360.56 163.543C362.424 163.965 363.03 161.809 361.026 161.387C359.022 160.966 358.603 163.074 360.56 163.543ZM377.801 130.319C378.541 130.398 379.282 130.183 379.866 129.718C380.45 129.254 380.829 128.578 380.923 127.835C380.935 127.097 380.659 126.384 380.153 125.849C379.648 125.315 378.953 125.001 378.22 124.977C377.871 124.949 377.52 124.991 377.188 125.099C376.855 125.208 376.547 125.382 376.281 125.61C376.014 125.838 375.796 126.117 375.637 126.431C375.478 126.744 375.382 127.086 375.354 127.437C375.327 127.788 375.368 128.141 375.476 128.475C375.584 128.81 375.757 129.12 375.984 129.387C376.211 129.655 376.489 129.875 376.8 130.035C377.112 130.195 377.452 130.291 377.801 130.319ZM379.618 90.5344C380.514 90.4577 381.387 90.2041 382.186 89.7881C382.985 89.3721 383.695 88.8018 384.275 88.1099C384.855 87.418 385.293 86.618 385.565 85.7556C385.838 84.8931 385.938 83.9852 385.862 83.0836C385.765 82.2086 385.486 81.3639 385.043 80.6043C384.6 79.8447 384.003 79.1873 383.292 78.6747C382.58 78.1621 381.769 77.8058 380.911 77.6289C380.053 77.452 379.168 77.4584 378.313 77.6478C376.586 77.9408 375.022 78.8512 373.909 80.2116C372.796 81.572 372.209 83.2908 372.256 85.0518C372.532 86.7497 373.455 88.2725 374.83 89.2963C376.205 90.3202 377.923 90.7644 379.618 90.5344ZM333.022 1.49975C334.606 0.703123 334.746 -0.515246 332.742 0.23452C330.739 0.984285 331.251 2.3901 333.022 1.49975ZM367.27 82.9899C369.227 82.6619 368.901 80.0377 366.944 80.4126C364.987 80.7875 365.313 83.3648 367.27 82.9899ZM338.986 24.555C340.275 23.6055 341.181 22.2219 341.54 20.6565C341.9 19.091 341.688 17.4479 340.943 16.0265C340.622 15.3764 340.163 14.8051 339.598 14.3527C339.033 13.9003 338.377 13.5779 337.675 13.4081C336.973 13.2384 336.243 13.2254 335.536 13.3701C334.828 13.5148 334.161 13.8137 333.581 14.2458C332.27 15.0961 331.319 16.4062 330.915 17.9216C330.51 19.4371 330.68 21.0497 331.391 22.4463C331.713 23.1241 332.176 23.7244 332.749 24.2066C333.321 24.6889 333.99 25.0419 334.71 25.2418C335.43 25.4417 336.185 25.4839 336.922 25.3654C337.66 25.2469 338.364 24.9706 338.986 24.555ZM357.625 39.6909C356.739 40.347 355.481 42.034 356.18 43.2523C356.879 44.4707 358.743 43.5803 359.535 43.2523C360.327 42.9243 361.772 41.1905 361.073 39.9721C360.374 38.7537 358.51 39.2692 357.625 39.9721V39.6909ZM373.421 92.2683C370.829 92.6064 368.446 93.8729 366.709 95.8355C364.971 97.798 363.996 100.325 363.962 102.952C363.962 103.187 363.962 104.218 363.962 104.405C364.687 106.667 366.147 108.617 368.108 109.943C370.069 111.269 372.416 111.893 374.772 111.715C377.26 111.785 379.686 110.93 381.586 109.313C383.486 107.696 384.727 105.432 385.07 102.952C385.117 102.407 385.117 101.858 385.07 101.312C384.949 99.9534 384.548 98.6347 383.893 97.4399C383.238 96.2451 382.343 95.2003 381.265 94.3718C380.187 93.5434 378.95 92.9494 377.631 92.6276C376.313 92.3058 374.943 92.2632 373.607 92.5026L373.421 92.2683ZM362.936 137.254C361.979 137.19 361.03 137.477 360.267 138.063C359.504 138.65 358.979 139.494 358.789 140.441C358.789 142.737 361.026 144.143 362.75 144.33C363.262 144.446 363.792 144.455 364.308 144.358C364.824 144.262 365.314 144.06 365.75 143.766C366.186 143.473 366.558 143.093 366.843 142.65C367.129 142.207 367.321 141.711 367.41 141.19C367.392 140.651 367.267 140.12 367.044 139.629C366.82 139.138 366.502 138.697 366.108 138.331C365.713 137.965 365.25 137.681 364.746 137.496C364.242 137.311 363.706 137.229 363.169 137.254H362.936Z" fill="#CCE0FF"/>
</svg>
