<svg width="479" height="376" viewBox="0 0 479 376" fill="none" xmlns="http://www.w3.org/2000/svg">
<path fill-rule="evenodd" clip-rule="evenodd" d="M226.385 271.302C173.356 230.853 146.737 216.816 83.3286 195.864C73.3504 194.16 63.1025 196.481 54.8392 202.317C46.576 208.152 40.9744 217.024 39.2666 226.98C37.5589 236.936 39.8849 247.162 45.7331 255.407C51.5812 263.652 60.4723 269.242 70.4505 270.946C106.657 283.579 140.747 301.587 171.571 324.363C178.656 331.47 188.261 335.504 198.306 335.594C208.351 335.683 218.027 331.819 225.237 324.839C232.446 317.86 236.61 308.327 236.825 298.306C237.04 288.285 233.289 278.583 226.385 271.302Z" fill="#EAF2FF"/>
<path fill-rule="evenodd" clip-rule="evenodd" d="M451.883 56.3851C421.13 30.2699 342.464 2.55215 302.67 -2.51234e-05C270.728 -1.95867 261.211 25.0765 282.178 47.7196C284.835 50.5686 287.869 53.5362 291.279 56.6226C262.103 44.752 230.517 36.3832 212.405 45.7907C195.125 54.6936 199.943 78.0192 210.383 90.9581C216.98 98.817 224.476 105.879 232.718 111.999L225.848 109.803C220.785 108.651 215.473 109.48 211.004 112.12C206.536 114.76 203.253 119.01 201.831 123.993C200.409 128.976 200.956 134.314 203.361 138.907C205.765 143.499 209.843 146.997 214.754 148.679C257.017 163.012 296.454 195.864 341.512 208.655C365.097 215.391 411.464 214.857 404.505 181.234C399.33 156.187 346.301 135.265 298.447 106.093C333.899 120.575 353.32 134.048 377.529 148.857C395.969 160.164 444.001 196.339 464.642 188.208C490.13 178.207 475.617 150.964 463.571 137.253C441.92 112.77 390.08 79.7405 352.1 52.913C380.503 62.3204 410.245 74.6658 421.874 83.5984C423.64 85.6527 425.801 87.3327 428.229 88.539C430.658 89.7452 433.304 90.4532 436.011 90.6211C438.719 90.7889 441.432 90.4132 443.991 89.5162C446.551 88.6191 448.904 87.219 450.911 85.3986C452.918 83.5782 454.54 81.3745 455.678 78.918C456.817 76.4614 457.451 73.8019 457.541 71.0968C457.632 68.3916 457.178 65.6958 456.206 63.1689C455.234 60.642 453.764 58.3352 451.883 56.3851Z" fill="#EAF2FF"/>
<path fill-rule="evenodd" clip-rule="evenodd" d="M318.701 117.993C320.286 116.505 321.578 114.734 322.508 112.77C322.73 112.356 322.928 111.93 323.103 111.494C325.621 110.738 328.061 109.745 330.389 108.527C336.1 104.906 337.2 98.6741 337.795 92.5014C337.795 91.5815 338.003 90.6022 338.063 89.5338C339.248 88.4592 340.156 87.1155 340.71 85.6165C340.918 85.1714 341.067 84.6966 341.245 84.1921C347.431 83.2721 351.922 77.4258 354.064 71.8763C355.389 68.7504 355.982 65.3636 355.797 61.9743C355.611 58.585 354.652 55.2828 352.993 52.3196C352.993 50.8358 353.171 48.7584 352.993 47.3933C353.049 45.0325 352.539 42.6924 351.506 40.5677C350.348 38.3631 348.454 36.6312 346.152 35.6711C343.854 32.798 340.967 30.4484 337.684 28.7798C334.401 27.1113 330.798 26.1623 327.118 25.9966C319.326 25.5515 309.124 28.1927 306.15 35.9976C302.822 34.1708 299.339 32.6415 295.741 31.4274C288.335 28.8752 276.171 26.0263 270.014 32.2583C268.309 32.5125 266.621 32.8693 264.958 33.3267C262.713 33.9309 260.65 35.0744 258.95 36.6573C257.249 38.2403 255.963 40.2145 255.203 42.4077C251.185 42.1211 247.197 43.2791 243.961 45.6721C241.968 47.334 240.987 49.1145 238.726 50.8061C236.344 52.8617 234.678 55.6187 233.967 58.6801C233.256 61.7414 233.537 64.9489 234.771 67.8404C235.689 69.9726 237.262 71.7596 239.262 72.9447C239.262 73.5085 239.262 74.0427 239.054 74.6066H238.459C236.133 74.981 233.976 76.0533 232.276 77.6808C230.576 79.3083 229.413 81.4139 228.941 83.7172L227.871 84.103C224.636 83.7535 221.372 84.4173 218.532 86.0023C217.523 86.1143 216.527 86.323 215.558 86.6255C210.3 88.7971 205.836 92.5261 202.769 97.309C201.202 99.8224 199.963 102.525 199.081 105.351C197.779 108.852 197.612 112.672 198.605 116.272C197.416 118.38 196.572 120.664 196.107 123.038V123.276C195.007 124.975 194.277 126.886 193.965 128.885C193.396 131.435 193.396 134.08 193.965 136.63C193.965 136.779 193.965 136.868 193.965 137.016C193.965 137.016 193.965 137.164 193.965 137.253C193.698 138.47 193.579 139.628 193.43 140.844C193.281 142.061 193.073 144.049 192.865 145.741C191.355 146.506 190.06 147.634 189.094 149.022C188.129 150.41 187.524 152.015 187.333 153.694C187.214 155.384 187.214 157.079 187.333 158.769C187.309 160 187.388 161.231 187.571 162.449C186.111 164.12 185.179 166.185 184.894 168.384C184.57 170.815 184.877 173.288 185.787 175.566C184.813 175.332 183.814 175.223 182.812 175.239C173.028 175.239 163.213 175.032 153.428 174.913L113.485 174.557C109.5 163.665 105.217 152.774 100.934 141.913C98.6145 135.977 96.2649 130.22 93.7964 124.433C91.8334 119.804 89.8705 113.483 84.517 111.702C79.1635 109.921 72.2041 111.376 67.0588 112.296C62.8535 113.24 58.5917 113.914 54.2997 114.314C52.5385 114.511 50.837 115.068 49.3017 115.952C47.7664 116.835 46.4305 118.025 45.3773 119.448C43.7568 121.281 42.6657 123.52 42.2205 125.924C41.7752 128.328 41.9926 130.808 42.8493 133.099C45.526 140.013 48.0243 147.076 50.6118 154.05C53.1993 161.024 55.757 167.998 58.3445 174.972H56.2032C50.9092 175.299 44.9312 175.595 42.1057 181.115C37.3471 190.404 44.7527 199.396 50.7307 205.925C53.993 209.304 57.0424 212.882 59.8614 216.638C58.2269 218.915 57.5457 221.738 57.9621 224.508C58.3785 227.278 59.8598 229.778 62.092 231.476C64.0745 233.009 66.2682 234.248 68.6054 235.156C71.5795 236.373 74.5536 237.263 77.5278 238.124C81.2367 239.369 84.8711 240.826 88.4131 242.486V242.783C88.4131 255.336 106.258 258.808 115.656 260.589C120.712 261.568 125.798 262.369 130.884 263.081C133.858 263.497 137.04 263.853 140.074 264.328C145.13 265.188 151.227 265.367 156.372 265.723L162.737 266.108C162.737 268.186 162.737 270.293 162.737 271.658C162.737 275.635 162.44 279.611 162.44 283.528C162.44 292.906 160.923 302.284 161.071 311.602C161.071 320.505 159.287 329.23 160.12 338.044C161.547 353.209 172.254 359.411 186.649 354.455C188.039 354.003 189.302 353.23 190.336 352.199C191.37 351.167 192.145 349.907 192.597 348.52C193.387 346.127 193.935 343.662 194.233 341.16C194.572 341.912 194.97 342.637 195.423 343.326C196.63 345.63 198.281 347.674 200.282 349.339C202.283 351.005 204.593 352.259 207.081 353.031C211.006 353.732 215.005 353.921 218.978 353.594C222.878 353.644 226.762 353.083 230.488 351.933C233.462 351.161 237.477 349.766 240.481 349.321C243.464 349.164 246.455 349.323 249.404 349.796C257.939 350.716 266.297 351.398 273.94 346.502C275.527 345.508 276.952 344.277 278.163 342.852C284.438 345.184 291.294 345.454 297.733 343.623C303.117 342.021 315.102 343.356 320.634 344.484C326.166 345.612 332.323 347.006 337.706 343.594C340.769 341.731 343.235 339.033 344.814 335.818C348.532 336.916 352.368 337.272 356.146 338.103C361.482 338.712 366.87 338.712 372.206 338.103C378.154 337.688 387.344 337.54 390.913 331.901C391.5 330.973 391.97 329.976 392.311 328.933C395.052 328.382 397.642 327.249 399.906 325.611C402.169 323.972 404.052 321.866 405.427 319.437C406.716 319.307 407.979 318.987 409.174 318.487C411.74 317.337 413.915 315.469 415.435 313.108C416.956 310.748 417.757 307.998 417.74 305.192C418.186 298.545 416.253 292.224 415.747 285.725C413.993 263.289 406.646 243.287 396.177 223.404C386.749 205.598 375.358 189.068 365.395 171.559C361.374 164.393 356.705 157.609 351.446 151.29C347.074 146.038 342.524 141.082 338.628 135.532C333.565 128.032 326.705 121.911 318.671 117.726L318.701 117.993ZM215.439 289.82C214.368 294.127 214.368 298.63 215.439 302.937C216.153 307.092 216.361 310.237 219.959 313.294C222.263 315.211 225.168 316.261 228.168 316.262C227.102 316.826 225.987 317.293 224.837 317.656C219.93 319.2 214.606 319.852 210.204 322.672C208.45 323.325 204.613 323.532 202.561 324.066C199.503 324.741 196.784 326.476 194.887 328.963C194.887 327.093 194.887 325.313 194.887 323.621C194.513 316.314 194.752 308.988 195.601 301.72C196.464 297.007 196.971 292.235 197.118 287.446C197.128 284.302 197.317 281.161 197.683 278.038C198.456 272.964 197.951 267.83 198.248 262.725C198.248 261.835 198.665 257.977 199.438 257.384C204.821 253.377 209.193 248.243 214.309 244.178L215.022 243.614C215.022 244.86 215.022 246.077 215.231 247.294C215.319 248.232 215.468 249.164 215.677 250.083C212.518 252.744 209.745 255.83 207.438 259.253C201.49 268.156 206.427 278.394 212.137 285.962C213.149 287.09 214.249 288.455 215.439 289.82Z" fill="white"/>
<path fill-rule="evenodd" clip-rule="evenodd" d="M392.401 235.749C377.054 201.711 352.279 170.461 331.014 141.2C323.668 131.14 316.917 127.935 301.957 129.33C292.707 130.279 295.354 134.79 291.22 140.785C287.741 145.8 283.488 163.962 282.298 170.461C280.527 178.972 276.065 186.69 269.569 192.481C266.029 196.013 263.62 198.416 268.111 203.788C270.104 206.221 281.049 205.509 280.008 210.94C275.904 212.335 264.126 201.651 270.461 214.59C277.331 228.627 266.981 223.493 265.197 217.914C263.65 212.958 259.486 224.68 258.624 215.302C258.624 214.175 263.472 206.399 259.843 205.806C256.869 205.39 257.047 208.388 250.207 208.091C239.916 207.646 239.143 230.051 248.541 239.37C255.322 246.136 291.369 241.536 297.644 238.183C300.202 236.788 299.578 234.8 299.816 230.615C300.113 224.472 303.86 223.76 308.56 225.57C323.995 231.476 332.918 248.095 340.383 265.485C347.015 280.679 380.92 349.736 405.338 313.145C414.231 299.732 399.301 251.3 392.401 235.749Z" fill="#7872B8"/>
<path fill-rule="evenodd" clip-rule="evenodd" d="M249.372 309.852C240.45 314.511 244.941 320.951 227.631 326.381C223.359 327.296 219.193 328.649 215.2 330.417C210.233 333.741 198.544 330.684 203.303 338.311C207.824 345.434 209.697 344.247 218.679 344.247C221.779 344.37 224.876 343.917 227.81 342.911C239.706 339.943 237.803 339.202 250.086 340.537C256.035 341.19 263.143 342.08 268.407 338.697C277.567 332.762 262.042 330.655 263.262 320.891C264.392 311.751 252.287 320.209 249.016 310.712L249.372 309.852Z" fill="#F0E5F6"/>
<path fill-rule="evenodd" clip-rule="evenodd" d="M328.336 318.695C312.306 315.964 311.741 320.475 297.643 311.216C291.646 307.503 284.508 306.07 277.538 307.18C252.02 314.065 272.542 341.1 294.758 334.542C301.896 332.465 315.102 333.77 322.269 335.224C325.005 335.788 330.002 337.094 332.322 335.64C333.985 334.643 335.287 333.145 336.042 331.361C336.796 329.578 336.964 327.602 336.521 325.717C336.078 323.833 335.046 322.137 333.576 320.875C332.105 319.613 330.27 318.85 328.336 318.695Z" fill="#F0E5F6"/>
<path fill-rule="evenodd" clip-rule="evenodd" d="M269.299 301.097C267.307 308.011 271.054 310 263.351 312.255C261.329 312.878 259.128 314.688 256.213 312.255C249.908 307.269 250.086 305.785 250.711 297.803C251.008 294.034 253.299 296.675 255.41 297.803C256.632 298.721 257.903 299.573 259.217 300.355C262.191 301.957 266.652 299.613 268.14 300.355C268.586 300.622 269.389 300.74 269.299 301.097Z" fill="#FFCE70"/>
<path fill-rule="evenodd" clip-rule="evenodd" d="M285.776 243.94C285.954 246.225 278.608 265.188 277.567 269.64C275.495 276.884 273.867 284.248 272.69 291.689C272.184 296.081 270.489 295.191 266.533 296.764C265.45 297.253 264.245 297.407 263.073 297.206C261.902 297.005 260.817 296.458 259.96 295.636C254.012 289.701 250.859 294.509 250.859 281.599C250.859 272.696 250.562 264.061 250.562 255.187C250.344 251.605 250.443 248.01 250.859 244.444C253.247 245.302 255.758 245.773 258.295 245.839C267.455 245.839 274.236 247.234 283.04 243.97C283.813 243.703 285.776 243.613 285.776 243.94Z" fill="#FFCE70"/>
<path fill-rule="evenodd" clip-rule="evenodd" d="M291.635 246.314C291.248 246.552 281.315 271.42 280.274 278.958C277.299 299.732 268.02 303.471 281.196 302.343C288.809 301.69 301.182 302.165 309.896 310.148C315.636 315.401 333.689 313.116 339.786 319.556C346.21 326.559 347.192 326.797 355.371 328.458C359.088 329.26 379.164 328.102 380.026 326.589C381.543 324.185 363.193 319.882 354.419 305.815C349.244 297.536 343.117 286.496 336.931 275.842C326.432 258.185 313.703 231.832 291.635 246.314Z" fill="#FFCE70"/>
<path fill-rule="evenodd" clip-rule="evenodd" d="M246.011 256.731C236.851 255.128 221.117 255.632 215.407 264.15C210.083 272.162 226.56 288.098 232.776 292.58C240.152 297.951 245.892 308.397 245.505 289.612C245.505 285.16 248.271 272.726 245.297 270.738C242.323 268.749 235.274 262.458 243.751 264.802C244.732 265.099 247.022 263.764 247.022 261.301C247.022 257.235 247.379 256.968 246.011 256.731Z" fill="#FFCE70"/>
<path fill-rule="evenodd" clip-rule="evenodd" d="M225.49 231.772C212.998 227.38 203.154 242.189 193.577 249.341C186.291 254.772 189.324 268.037 188.105 276.257C187.034 283.38 188.105 289.226 186.083 299.583C183.852 311.454 186.826 335.699 183.436 345.522C163.42 352.407 170.795 327.954 170.557 311.572C170.557 303.856 171.955 293.292 171.955 283.647C171.955 279.344 173.204 258.155 170.587 257.116C170.587 257.116 145.842 255.692 141.589 254.979C135.433 253.97 97.9587 250.201 97.9587 242.782C97.9587 233.879 90.5233 233.078 80.8276 229.161C79.9056 228.775 64.4995 224.502 67.8008 221.861C79.1323 212.958 46.0301 194.529 50.6995 185.477C51.8297 183.222 182.038 187.109 159.256 195.953C153.07 198.357 152.623 196.606 152.623 199.217C152.623 208.951 166.899 215.213 175.227 217.231C185.042 219.605 199.02 219.843 209.162 223.404C216.002 225.837 220.612 222.424 225.103 229.992C225.313 230.565 225.443 231.164 225.49 231.772Z" fill="url(#paint0_linear_1_1151)"/>
<path fill-rule="evenodd" clip-rule="evenodd" d="M224.927 237.411C224.54 241.061 223.767 251.448 228.228 251.864C238.4 252.843 238.548 254.831 238.548 245.186C238.548 241.833 225.135 235.72 224.927 237.411Z" fill="#F3D3E3"/>
<path fill-rule="evenodd" clip-rule="evenodd" d="M224.778 301.008C225.64 305.904 224.778 306.943 232.897 305.964C234.741 305.756 236.763 305.192 236.763 304.153C236.793 300.711 220.941 278.958 224.778 301.008Z" fill="#F3D3E3"/>
<path fill-rule="evenodd" clip-rule="evenodd" d="M278.788 360.598C278.788 367.423 287.175 370.925 293.034 370.807C298.893 370.688 305.198 366.8 305.109 360.093C305.02 353.386 298.804 349.677 292.617 349.796C286.431 349.914 278.639 353.802 278.788 360.598ZM316.351 369.026C316.394 368.778 316.383 368.524 316.32 368.28C316.257 368.036 316.142 367.809 315.985 367.612C315.827 367.416 315.629 367.255 315.405 367.141C315.18 367.026 314.934 366.96 314.682 366.947C314.43 366.935 314.178 366.976 313.943 367.067C313.708 367.159 313.496 367.299 313.319 367.478C313.142 367.658 313.006 367.873 312.918 368.109C312.831 368.345 312.795 368.597 312.812 368.848C312.769 369.096 312.78 369.35 312.843 369.594C312.906 369.838 313.02 370.065 313.178 370.261C313.336 370.458 313.534 370.619 313.758 370.733C313.983 370.848 314.229 370.914 314.481 370.926C314.733 370.939 314.985 370.898 315.22 370.807C315.455 370.715 315.667 370.575 315.844 370.396C316.021 370.216 316.157 370.001 316.245 369.765C316.332 369.529 316.368 369.277 316.351 369.026ZM239.707 351.042C239.707 348.074 235.544 346.947 233.254 346.917C230.963 346.887 226.502 347.926 226.324 350.805C226.145 353.683 230.547 354.93 232.807 354.93C235.068 354.93 239.499 353.95 239.707 351.042ZM146.884 345.285C147.658 339.172 140.609 335.254 135.434 334.661C133.314 334.311 131.139 334.515 129.122 335.253C127.105 335.992 125.314 337.24 123.924 338.875C122.799 339.777 122.013 341.032 121.693 342.436C121.558 343.281 121.607 344.146 121.838 344.971C122.069 345.796 122.476 346.561 123.032 347.214C124.024 348.983 125.445 350.475 127.165 351.553C128.885 352.632 130.849 353.262 132.876 353.387C138.23 353.98 146.171 351.547 146.884 345.285ZM125.976 358.847C126.274 356.829 123.567 356.176 122.021 356.651C121.247 356.888 120.266 357.126 120.087 358.075C119.909 359.025 120.801 359.648 121.664 360.064C123.18 360.895 125.471 360.865 125.976 358.847ZM16.8549 260.648C20.6915 256.879 19.0855 252.042 15.3678 248.777C11.6501 245.513 4.63116 243.287 1.27039 247.412C-2.09039 251.537 1.92468 257.561 5.13675 260.262C8.34882 262.962 13.2859 264.09 16.8549 260.529V260.648ZM54.567 294.716C53.5561 295.139 52.7429 295.928 52.2906 296.924C51.8382 297.92 51.7802 299.051 52.1282 300.088C52.4083 301.141 53.0922 302.043 54.0325 302.598C54.9727 303.153 56.0941 303.318 57.1545 303.055C57.6836 302.898 58.1749 302.635 58.5982 302.282C59.0214 301.928 59.3677 301.492 59.6157 301C59.8636 300.508 60.008 299.97 60.04 299.42C60.072 298.871 59.9908 298.32 59.8015 297.803C59.6571 297.262 59.4064 296.756 59.064 296.314C58.7216 295.871 58.2944 295.501 57.8073 295.225C57.3201 294.949 56.7827 294.772 56.2264 294.705C55.6701 294.638 55.106 294.682 54.567 294.835V294.716ZM148.193 353.802C148.758 343.653 161.755 339.824 170.202 340.062C177.816 340.299 187.244 343.297 191.021 350.419C191.834 351.849 192.265 353.464 192.27 355.108C192.233 356.745 191.761 358.342 190.902 359.737C186.262 367.156 177.548 369.204 169.28 369.234C161.012 369.263 147.539 364.248 148.104 353.802H148.193ZM259.842 370.361C259.842 374.427 265.582 376.089 268.765 376C271.947 375.911 277.271 374.071 277.182 370.065C277.092 366.058 271.917 364.337 268.527 364.396C265.136 364.456 259.753 366.236 259.842 370.361Z" fill="#CCE0FF"/>
<path fill-rule="evenodd" clip-rule="evenodd" d="M245.239 172.509C207.141 143.456 188.017 133.366 142.572 118.379C139.022 117.771 135.386 117.867 131.873 118.661C128.36 119.455 125.038 120.932 122.097 123.007C119.155 125.082 116.652 127.715 114.731 130.755C112.809 133.795 111.507 137.183 110.897 140.726C110.288 144.268 110.384 147.896 111.18 151.401C111.976 154.907 113.455 158.222 115.535 161.156C117.615 164.091 120.253 166.589 123.3 168.506C126.347 170.423 129.742 171.723 133.293 172.331C159.299 181.403 183.784 194.339 205.921 210.703C211.056 215.631 217.91 218.375 225.034 218.353C232.159 218.332 238.996 215.548 244.101 210.589C249.207 205.63 252.179 198.885 252.392 191.779C252.604 184.673 250.039 177.763 245.239 172.509Z" fill="#EAF2FF"/>
<path fill-rule="evenodd" clip-rule="evenodd" d="M289.076 99.9204C290.027 102.117 293.953 99.6534 295.47 96.3593C298.177 90.424 297.73 80.9276 291.544 81.5211C289.552 81.7288 288.421 89.6821 287.678 91.2846C285.893 95.1722 277.268 94.8161 276.911 102.947C276.911 106.538 285.358 107.072 286.964 110.812C289.522 116.747 277.714 120.664 279.083 118.498C280.034 116.984 283.782 116.094 281.611 112.028C279.439 107.963 273.759 111.85 271.439 108.497C267.959 103.482 276.911 94.1039 278.19 86.6551C279.796 77.1587 273.164 76.9509 270.458 74.191C267.751 71.4311 265.699 64.7242 264.361 60.9553C263.43 64.9518 263.369 69.1008 264.182 73.1227C261.276 70.6069 258.987 67.4597 257.49 63.923C256.33 65.7036 257.698 75.7935 253.683 61.905C252.94 59.3231 252.672 61.1928 251.215 64.1307C248.062 70.6299 249.311 75.3484 247.229 80.8979C245.98 84.192 238.604 82.7081 238.307 85.29C238.371 86.3171 238.673 87.3153 239.189 88.2062C239.705 89.0971 240.421 89.8563 241.281 90.424C244.255 92.5014 243.185 91.3737 243.185 96.1812C243.185 98.1102 242.501 112.028 243.72 112.741C243.095 120.575 256.598 113.898 258.591 114.492C260.167 114.968 261.631 115.754 262.898 116.804C264.165 117.854 265.208 119.146 265.967 120.605C266.621 121.673 271.171 127.609 271.29 127.609C272.926 127.609 279.32 124.463 282.146 123.751C284.759 123.008 287.245 121.877 289.522 120.397C291.723 119.032 292.704 119.388 292.139 115.975C291.633 113.008 283.514 101.968 287.975 100.188C288.63 99.8314 288.927 99.6237 289.076 99.9204Z" fill="#FCD2D3"/>
<path fill-rule="evenodd" clip-rule="evenodd" d="M340.176 44.5147C337.202 32.6441 315.312 33.2673 314.955 40.1523C314.539 47.6901 309.304 39.9445 309.513 51.2809C306.539 42.7638 278.701 33.8015 276.5 39.4104C275.31 42.378 263.979 40.0336 264.246 46.4437C264.246 49.0552 261.272 51.637 257.971 51.637C247.383 51.637 252.022 52.2899 244.647 58.0768C242.059 60.0355 243.041 70.3925 249.019 59.9167C252.707 53.5066 255.859 61.2225 258.417 59.0561C261.774 57.9279 265.326 57.4937 268.856 57.78C271.325 58.6407 269.957 62.0238 271.83 65.3475C275.102 70.897 275.28 70.4815 283.132 66.8017C289.08 64.1011 290.597 57.3349 297.2 62.9437C298.032 63.656 295.177 71.0157 298.389 72.1137C298.389 72.6182 316.234 56.0885 314.807 69.6209C314.569 71.9357 304.605 83.8359 307.55 89.5041C308.412 89.5041 315.52 80.9573 315.193 92.264C315.193 97.22 300.917 100.395 302.137 107.725C302.345 108.972 288.129 109.862 302.137 112.147C316.145 114.432 312.546 105.796 317.305 103.244C331.819 95.5878 330.272 87.5752 332.8 78.1974C334.406 72.2621 330.748 74.2801 339.284 74.5769C342.883 74.5769 349.336 63.5966 344.221 56.3259C341.931 53.0912 345.321 43.0012 341.514 44.4553C341.158 44.4553 341.336 44.6631 340.89 44.6334L340.176 44.5147Z" fill="#4B4680"/>
<path fill-rule="evenodd" clip-rule="evenodd" d="M236.018 109.595C238.457 108.497 240.093 107.636 240.271 110.604C240.271 111.791 240.271 111.761 238.576 112.206C236.504 112.869 234.354 113.258 232.181 113.364C230.903 113.364 230.278 113.542 230.189 111.583C230.189 110.426 235.513 109.892 235.899 109.625L236.018 109.595Z" fill="#FCD2D3"/>
<path fill-rule="evenodd" clip-rule="evenodd" d="M233.373 114.759C232.54 114.996 226.8 116.005 226.562 112.859C226.164 110.927 225.638 109.024 224.985 107.162C224.45 106.123 222.725 107.874 222.011 109.269C220.613 112.533 221.595 116.332 219.037 118.172C215.349 120.931 212.881 113.245 207.884 119.359C206.538 120.973 205.599 122.886 205.148 124.938C205.055 125.358 205.055 125.794 205.148 126.214C203.066 133.366 203.423 145.622 203.007 152.151C203.007 154.555 217.431 154.555 217.877 152.774C219.483 144.138 217.669 136.69 219.126 128.558C219.721 127.965 219.87 125.591 222.874 124.582C225.878 123.573 229.357 122.504 232.272 121.436C237.804 119.388 236.823 117.964 238.072 116.005C240.302 112.444 241.879 112.296 233.373 114.759Z" fill="#FCD2D3"/>
<path fill-rule="evenodd" clip-rule="evenodd" d="M236.646 93.5701C238.847 95.7068 242.594 103.423 239.352 105.708C238.163 106.568 237.895 101.316 236.378 106.42C236.28 106.635 236.127 106.821 235.934 106.957C235.741 107.094 235.515 107.177 235.279 107.198C235.043 107.22 234.806 107.178 234.591 107.078C234.377 106.977 234.193 106.822 234.058 106.628C233.196 105.619 234.058 109.595 231.411 107.488C230.4 106.687 229.835 109.566 228.913 108.883C226.504 107.162 227.931 112.207 226.177 105.352C225.522 102.888 221.15 102.592 220.228 107.251C219.782 109.299 219.069 113.186 216.332 113.186C215.619 113.186 208.481 113.483 208.272 113.186C206.458 111.613 209.73 104.105 210.89 102.384C212.792 99.4447 215.439 97.0593 218.563 95.4694C221.775 94.4901 220.912 96.6861 223.292 94.134C224.092 93.671 224.987 93.3957 225.909 93.3288C226.831 93.262 227.757 93.4054 228.616 93.7482C230.132 94.8759 231.411 90.7805 233.761 93.4514C234.296 94.312 236.348 93.2733 236.646 93.5701Z" fill="#FCD2D3"/>
<path fill-rule="evenodd" clip-rule="evenodd" d="M302.759 123.662C299.963 120.1 294.996 114.759 292.795 120.991C292.052 123.098 291.1 121.703 288.453 123.276C286.501 124.499 284.416 125.494 282.237 126.244C279.25 126.775 276.307 127.529 273.433 128.499C272.928 128.827 272.353 129.033 271.754 129.1C271.155 129.167 270.549 129.093 269.983 128.885C267.574 127.638 271.768 138.648 272.511 139.776C273.007 140.732 273.824 141.485 274.818 141.902C275.813 142.32 276.922 142.376 277.954 142.061C287.947 140.785 283.724 132.476 294.104 128.38C296.598 127.297 299.2 126.481 301.866 125.947C304.602 125.561 304.454 125.858 302.759 123.662Z" fill="#7872B8"/>
<path fill-rule="evenodd" clip-rule="evenodd" d="M221.504 160.015C219.719 155.415 223.496 154.673 215.912 156.038C208.328 157.403 205.562 155.682 199.049 153.991C196.075 153.219 197.056 155.356 196.997 158.739C196.997 160.49 195.718 172.064 198.097 172.271C202.945 172.746 202.558 174.2 207.019 172.568C208.566 172.004 217.816 172.568 220.106 169.6C221.774 166.698 222.274 163.271 221.504 160.015Z" fill="#7872B8"/>
<path fill-rule="evenodd" clip-rule="evenodd" d="M268.35 138.411C272.306 150.281 265.733 156.216 264.603 166.396C263.651 174.794 266.536 175.892 260.409 182.065C255.869 186.528 251.608 191.265 247.65 196.25C246.889 197.875 245.886 199.376 244.676 200.701C240.215 205.361 235.962 200.998 232.393 204.352C227.872 208.566 214.994 202.897 210.265 199.781C205.06 196.369 197.238 192.422 196.703 188.267C196.168 184.112 199.023 177.643 195.335 172.924C194.353 171.648 192.926 166.692 198.16 168.414C199.546 168.865 201.014 169.011 202.462 168.842C203.91 168.673 205.304 168.193 206.547 167.434C208.629 165.713 213.864 168.681 218.444 164.645C218.997 164.303 219.627 164.105 220.276 164.066C220.925 164.028 221.574 164.151 222.164 164.424C222.754 164.698 223.266 165.114 223.655 165.634C224.044 166.154 224.297 166.762 224.392 167.405C227.366 181.976 220.437 180.017 212.496 188.445C209.522 191.413 210.682 196.22 219.723 187.703C222.697 185.032 221.805 178.355 224.749 181.768C225.998 183.163 223.47 194.232 226.92 190.671C230.37 187.11 227.575 171.47 229.24 171.619C230.906 171.767 232.809 177.999 233.077 179.364C233.255 179.364 234.861 181.471 234.683 177.405C234.534 174.26 242.475 185.21 244.289 179.631C247.263 170.046 232.066 172.36 234.445 169.185C235.902 167.197 240.393 167.642 242.445 165.208C245.211 161.914 246.728 154.109 246.966 150.934C247.204 147.759 255.085 143.871 255.888 140.31C257.613 133.692 265.822 130.962 268.35 138.411Z" fill="#7872B8"/>
<path fill-rule="evenodd" clip-rule="evenodd" d="M283.963 143.278C276.468 152.863 261.21 137.164 261.091 143.99C261.091 148.946 257.701 169.898 255.708 174.349C254.994 175.922 266.802 176.248 270.817 176.308C272.754 176.382 274.678 175.963 276.408 175.091C278.966 174.29 278.788 158.413 281.673 153.783C283.249 151.261 286.461 145.919 284.23 143.218C284.26 143.218 284.29 142.862 283.963 143.278Z" fill="#7872B8"/>
<path fill-rule="evenodd" clip-rule="evenodd" d="M240.72 210.702C240.215 207.408 236.557 203.55 233.85 207.972C233.047 209.278 231.619 207.972 230.4 213.67C229.543 216.448 229.014 219.316 228.824 222.217C229.002 229.191 227.01 232.337 233.791 237.055C234.973 238.067 236.458 238.662 238.014 238.747C238.46 237.5 239.114 238.42 238.014 235.542C235.902 229.102 233.999 218.003 238.876 212.186C239.085 211.949 239.798 210.762 240.066 210.702H240.72Z" fill="#7872B8"/>
<path fill-rule="evenodd" clip-rule="evenodd" d="M276.406 181.827C275.603 178.058 273.997 178.207 270.249 178.207C268.762 178.207 262.219 180.522 261.089 182.629C259.965 184.772 259.048 187.018 258.353 189.335C257.401 192.036 256.449 194.796 255.765 197.526C255.081 200.256 252.226 206.251 257.996 203.758C259.222 203.192 260.405 202.537 261.535 201.8C264.212 199.366 263.052 198.238 263.944 194.588C265.193 189.484 270.071 187.169 273.997 184.439C274.919 183.994 276.614 182.599 276.406 181.827Z" fill="#E5E5E5"/>
<path fill-rule="evenodd" clip-rule="evenodd" d="M181.712 212.216C172.79 211.058 171.362 212.038 164.7 206.28C161.904 203.877 135.851 204.767 129.486 204.708C123.121 204.648 117.411 203.491 115.954 204.708C112.325 207.675 108.132 210.643 104.057 213.403C101.3 215.53 98.3646 217.416 95.2834 219.041C91.9226 220.644 87.1342 224.057 94.7777 223.878C112.266 223.493 132.311 224.086 150.127 224.086C152.922 224.086 178.649 225.125 180.165 223.493C182.634 220.881 192.657 214.59 186.322 212.75C184.809 212.407 183.263 212.227 181.712 212.216Z" fill="#7872B8"/>
<path fill-rule="evenodd" clip-rule="evenodd" d="M86.6294 130.992C82.0789 129.478 66.078 133.96 59.7134 133.96C59.7134 133.96 55.5496 136.512 56.7392 139.895C60.0405 148.382 86.0643 220.496 87.6109 219.428C88.2949 218.953 96.0574 214.442 102.987 209.931C106.659 207.239 110.471 204.743 114.408 202.453C114.408 198.654 88.0272 131.467 86.6294 130.992Z" fill="#7872B8"/>
<path fill-rule="evenodd" clip-rule="evenodd" d="M62.2691 137.58C59.295 138.084 65.8679 149.45 66.5816 152.151C70.3291 165.564 75.7123 175.002 79.7571 187.169C80.4412 189.217 91.1481 213.64 91.2373 213.581C92.308 212.869 111.313 201.71 111.461 201.71C111.61 201.71 96.4123 159.006 93.6166 152.982C85.9136 136.096 86.3002 134.018 84.6942 134.375C83.0881 134.731 78.5972 134.731 62.2691 137.58Z" fill="white"/>
<path fill-rule="evenodd" clip-rule="evenodd" d="M96.7682 178.059C88.8272 182.006 95.2811 174.735 90.4927 166.366C88.9462 163.666 88.4108 160.579 84.8121 164.081C83.1466 165.684 83.6522 176.99 88.7379 178.444C91.7121 179.275 87.8755 183.935 88.1729 185.418C89.2138 191.057 98.4634 191.354 97.6901 179.483C97.6604 178.801 97.0358 178.059 96.7682 178.059Z" fill="#FCD2D3"/>
<path fill-rule="evenodd" clip-rule="evenodd" d="M92.7537 167.286C94.33 164.318 93.8244 169.511 94.0624 171.351C94.2408 172.687 93.0512 176.663 95.7279 174.972C96.8581 174.289 94.4193 167.137 93.527 165.565C92.1886 163.131 88.2925 155.593 85.7943 157.344C80.4408 161.024 82.1063 162.33 80.768 168.977C79.4296 175.625 83.3852 178.919 84.2477 182.302C85.1994 182.48 88.7684 181.976 85.943 178.978C85.2292 178.266 81.4222 174.319 82.136 173.221C83.2365 171.5 83.8908 175.298 83.177 168.235C82.5524 161.796 82.9986 162.3 87.1921 161.647C90.3744 161.202 92.2184 168.265 92.7537 167.286Z" fill="#7872B8"/>
<path fill-rule="evenodd" clip-rule="evenodd" d="M98.6712 179.483C98.6712 185.418 96.5001 192.956 89.0945 190.137C87.8454 189.662 87.6075 184.558 84.4549 190.137C82.8786 192.837 84.2466 194.588 85.9122 197.111C87.1752 198.845 88.1772 200.755 88.8863 202.779C88.8863 203.165 90.3734 206.755 91.8605 206.785C95.1915 206.785 106.077 201.384 106.731 197.111C106.805 195.629 106.552 194.15 105.988 192.778C105.062 188.63 103.84 184.554 102.329 180.581C99.6527 176.842 98.6712 179.602 98.6712 179.483Z" fill="#FFCE70"/>
<path fill-rule="evenodd" clip-rule="evenodd" d="M76.5739 162.419C76.0088 154.555 75.5329 156.81 83.2955 155.148C89.9575 153.694 86.7454 150.934 86.0911 145.919C85.4071 140.369 74.9381 140.607 73.8972 141.378C70.923 143.723 70.923 145.414 70.4174 149.332C69.7631 154.139 73.2428 158.828 76.1278 162.3L76.5739 162.419Z" fill="#E5E5E5"/>
<path fill-rule="evenodd" clip-rule="evenodd" d="M227.573 212.097C226.294 216.548 226.622 223.7 225.759 223.671C222.22 223.671 220.852 221.297 217.997 218.804C210.769 212.453 211.394 213.551 203.126 215.361C195.809 216.934 188.434 202.482 177.281 202.482C176.388 202.482 174.871 202.126 173.117 202.126C171.362 202.126 161.637 203.105 162.321 199.811C162.559 198.654 165.89 199.306 166.812 196.665C167.793 196.339 169.488 195.864 169.786 194.974C170.975 192.6 179.035 193.193 181.682 191.264C183.963 190.623 186.349 190.441 188.701 190.73C189.088 190.908 191.675 191.502 193.162 192.095C200.984 195.241 207.022 201.473 214.487 205.123C218.213 206.769 222.087 208.061 226.056 208.981C230.547 209.96 228.614 208.536 227.573 212.097Z" fill="#FCD2D3"/>
<path fill-rule="evenodd" clip-rule="evenodd" d="M163.064 76.654C158.781 72.1135 153.13 76.1198 158.513 84.2215C160.625 87.3969 163.54 90.4535 165.265 90.4535C166.96 90.3183 168.595 89.7648 170.023 88.8427C171.45 87.9207 172.626 86.659 173.444 85.1711C177.489 79.0281 177.518 70.0955 169.31 73.3006C168.619 73.7943 168.083 74.4735 167.763 75.2592C165.919 78.6423 167.168 80.9868 163.064 76.654Z" fill="#CCE0FF"/>
<path fill-rule="evenodd" clip-rule="evenodd" d="M146.823 186.754C149.41 178.771 155.002 161.707 149.797 161.054C147.091 160.698 126.004 159.155 125.439 161.677C124.808 164.611 124.808 167.646 125.439 170.58C125.439 170.58 121.037 169.126 118.926 171.411C112.65 178.207 119.342 181.264 125.736 180.314C128.71 179.958 123.654 191.739 134.094 191.324C141.113 191.057 144.563 193.965 146.882 186.754H146.823ZM123.416 173.518C124.487 173.874 125.588 176.486 124.219 176.812C122.851 177.139 119.699 177.702 119.699 175.655C119.699 173.607 121.097 172.835 123 173.399L123.416 173.518Z" fill="#7872B8"/>
<path fill-rule="evenodd" clip-rule="evenodd" d="M132.401 171.915C131.959 171.915 131.536 172.09 131.223 172.402C130.911 172.714 130.735 173.136 130.735 173.577C130.703 173.816 130.723 174.059 130.793 174.29C130.863 174.52 130.981 174.734 131.14 174.915C131.299 175.096 131.495 175.242 131.715 175.341C131.935 175.441 132.174 175.492 132.416 175.492C132.657 175.492 132.896 175.441 133.116 175.341C133.336 175.242 133.532 175.096 133.691 174.915C133.85 174.734 133.969 174.52 134.039 174.29C134.108 174.059 134.128 173.816 134.096 173.577C134.096 173.356 134.052 173.138 133.967 172.934C133.881 172.731 133.756 172.546 133.598 172.391C133.44 172.237 133.253 172.115 133.047 172.033C132.842 171.951 132.622 171.911 132.401 171.915Z" fill="white"/>
<path fill-rule="evenodd" clip-rule="evenodd" d="M133.859 175.981H130.885C131.031 177.758 131.681 179.456 132.759 180.878C133.061 181.316 133.458 181.681 133.922 181.943C134.386 182.205 134.904 182.358 135.436 182.391H135.703C136.243 182.284 136.721 181.976 137.042 181.531C137.452 180.96 137.718 180.298 137.815 179.602C138.142 178.177 139.6 178.147 140.046 179.364C140.095 179.689 140.095 180.019 140.046 180.344V182.421H143.02V180.136C143.059 179.551 142.973 178.966 142.767 178.417C142.562 177.869 142.242 177.37 141.828 176.954C141.414 176.539 140.917 176.216 140.369 176.007C139.82 175.799 139.234 175.709 138.648 175.744C137.888 175.809 137.162 176.085 136.552 176.542C135.943 176.998 135.473 177.616 135.198 178.326C134.96 178.86 134.96 179.453 134.543 179.869C134.444 179.974 134.324 180.057 134.191 180.113C134.058 180.169 133.915 180.197 133.77 180.195L133.859 175.981Z" fill="white"/>
<path fill-rule="evenodd" clip-rule="evenodd" d="M139.034 171.915C138.795 171.883 138.551 171.903 138.32 171.973C138.089 172.042 137.875 172.16 137.694 172.319C137.512 172.478 137.366 172.674 137.266 172.893C137.167 173.113 137.115 173.351 137.115 173.592C137.115 173.833 137.167 174.071 137.266 174.291C137.366 174.51 137.512 174.706 137.694 174.865C137.875 175.023 138.089 175.142 138.32 175.211C138.551 175.281 138.795 175.301 139.034 175.269C139.442 175.214 139.815 175.015 140.086 174.706C140.356 174.398 140.506 174.002 140.506 173.592C140.506 173.182 140.356 172.786 140.086 172.478C139.815 172.169 139.442 171.969 139.034 171.915Z" fill="white"/>
<defs>
<linearGradient id="paint0_linear_1_1151" x1="225.49" y1="265.782" x2="50.2237" y2="265.782" gradientUnits="userSpaceOnUse">
<stop stop-color="#E8DBEE"/>
<stop offset="1" stop-color="#FA9CAD"/>
</linearGradient>
</defs>
</svg>
