<svg width="50" height="100" viewBox="0 0 50 100" fill="none" xmlns="http://www.w3.org/2000/svg">
<path fill-rule="evenodd" clip-rule="evenodd" d="M45.1982 9.36608C43.6376 22.366 43.1127 35.4692 43.6283 48.552C43.8302 61.2297 45.4374 73.8461 48.4206 86.1705C48.4206 87.3255 48.999 88.563 49.3295 89.8004C49.6223 90.9961 49.8431 92.2082 49.9905 93.4303C50.0506 94.4061 49.8248 95.3782 49.3406 96.2279C48.8563 97.0777 48.1347 97.7682 47.2638 98.2151C45.3253 99.1498 43.2174 99.683 41.067 99.7825C38.6836 99.8809 36.2972 99.6869 33.9612 99.205C32.2176 98.9794 30.5342 98.4191 29.0037 97.5551C27.1724 96.2767 25.7861 94.4599 25.0377 92.3578C24.1585 90.1578 23.4405 87.8969 22.8894 85.5931C21.6873 80.1622 20.9137 74.6454 20.5759 69.0937C19.9975 62.5765 19.667 55.8117 19.5844 48.882C19.333 44.6509 19.333 40.4086 19.5844 36.1775C14.2652 36.5738 8.92116 35.8718 3.88563 34.1151C-4.37689 30.0728 2.48101 22.6481 6.61227 19.1007C13.8833 12.8309 27.1859 1.69389 27.6817 1.4464C29.3097 0.659808 31.0804 0.21079 32.887 0.126451C34.7009 -0.0421502 36.5265 -0.0421502 38.3403 0.126451C40.3366 0.260746 42.242 1.01017 43.7936 2.27137C44.552 3.26977 45.0727 4.42756 45.316 5.65686C45.5594 6.88615 45.5191 8.15465 45.1982 9.36608Z" fill="#7872B9"/>
</svg>
