<svg width="178" height="178" viewBox="0 0 178 178" fill="none" xmlns="http://www.w3.org/2000/svg">
<g clip-path="url(#clip0_1_1668)">
<path fill-rule="evenodd" clip-rule="evenodd" d="M151.775 47.583C152.693 46.3158 152.217 44.5221 150.737 44.0146C119.848 33.4228 61.9029 64.996 43.572 126.897C42.3774 119.125 40.7844 112.84 37.8919 111.248C29.9729 111.544 31.4615 121.117 40.8496 139.006C48.2654 137.37 67.7277 133.702 60.7074 124.672C56.8314 124.023 52.4951 126.224 47.7612 129.911C72.7975 62.7313 119.399 50.2509 149.895 48.6081C150.648 48.5675 151.333 48.1937 151.775 47.583Z" fill="#FACD6E"/>
</g>
<defs>
<clipPath id="clip0_1_1668">
<rect width="134" height="134" fill="white" transform="matrix(-0.91043 -0.413663 -0.413663 0.91043 177.43 55.4309)"/>
</clipPath>
</defs>
</svg>
