<svg width="355" height="364" viewBox="0 0 355 364" fill="none" xmlns="http://www.w3.org/2000/svg">
<path fill-rule="evenodd" clip-rule="evenodd" d="M187.23 363.991C95.1284 363.991 19.9993 349.362 19.9993 331.418C19.9993 313.475 95.0466 299.047 187.23 299.047C279.413 299.047 354.379 313.475 354.379 331.378C354.379 349.281 279.25 363.991 187.23 363.991Z" fill="#CCE0FF"/>
<path fill-rule="evenodd" clip-rule="evenodd" d="M204.121 285.59C195.451 272.617 163.632 266.273 145.678 258.917C121.14 248.895 46.2969 210.422 30.3876 216.362C13.0879 222.788 9.57071 248.693 22.7398 263.161C48.3826 291.45 115.578 309.474 153.244 318.001C169.849 321.76 235.939 323.78 215.695 291.692C215.695 291.692 203.221 283.852 202.853 283.61L204.121 285.59Z" fill="#4B4680"/>
<path fill-rule="evenodd" clip-rule="evenodd" d="M144.941 311.171C189.274 291.854 251.929 217.858 297.653 207.593C332.702 199.793 370.164 202.056 342.64 242.469C322.191 272.173 325.218 262.312 319.737 297.956C317.652 311.495 306.405 328.791 291.109 332.671C275.036 336.712 254.301 336.712 240.069 327.458C227.799 319.375 124.164 360.799 139.828 317.274C140.963 314.833 142.726 312.729 144.941 311.171Z" fill="#7872B8"/>
<path fill-rule="evenodd" clip-rule="evenodd" d="M273.114 109.107C308.45 123.009 335.974 174.455 304.974 189.61C281.09 201.37 243.423 265.344 219.947 256.736C206.492 251.886 181.667 181.85 173.856 169.727C168.784 162.048 158.233 142.246 163.631 133.355C178.804 108.218 186.779 113.674 210.991 105.066C230.663 98.2359 254.015 101.509 273.114 109.107Z" fill="#FA7A8D"/>
<path fill-rule="evenodd" clip-rule="evenodd" d="M224.324 79.2009C229.681 97.4676 232.503 96.5381 237.738 106.52C245.468 121.19 198.845 135.9 195.123 122.241C193.16 114.886 194.346 102.034 189.929 95.7703C187.189 92.0119 222.238 83.2422 223.629 80.4537C223.792 80.09 224.324 79.3222 224.324 79.2009Z" fill="#E7B6B7"/>
<path fill-rule="evenodd" clip-rule="evenodd" d="M211.767 320.75C224.527 310.364 227.226 319.699 242.767 318.325C243.626 318.325 258.227 314.041 260.108 313.637C266.692 312.223 269.76 313.193 272.377 316.143C277.203 321.599 288.123 344.877 277.203 344.877C266.815 344.877 268.287 340.835 253.073 343.785C245.207 345.654 237.088 346.267 229.026 345.604C222.482 344.755 202.606 344.472 202.606 335.056C202.442 324.549 205.796 325.6 211.767 320.75Z" fill="#FFCE70"/>
<path fill-rule="evenodd" clip-rule="evenodd" d="M150.423 318.891C160.361 315.981 165.187 336.148 150.423 341.24C132.428 347.544 132.142 342.977 114.147 341.24C105.968 340.35 104.332 338.572 96.9291 342.129C94.5162 343.301 83.801 346.534 82.7785 342.129C81.2653 335.501 79.8748 314.931 90.181 314.931C99.6693 314.931 105.109 319.659 119.341 319.659C128.379 319.457 143.266 321.073 150.423 318.891Z" fill="#FFCE70"/>
<path fill-rule="evenodd" clip-rule="evenodd" d="M126.948 33.0907L4.78708 109.593C3.64236 110.308 2.6517 111.24 1.87173 112.335C1.09174 113.429 0.537811 114.665 0.241516 115.971C-0.0547485 117.277 -0.0875549 118.628 0.14505 119.947C0.377655 121.266 0.871063 122.526 1.59708 123.656L149.565 354.415C151.035 356.691 153.357 358.299 156.023 358.89C158.69 359.481 161.485 359.005 163.797 357.567L285.959 281.065C287.108 280.353 288.102 279.423 288.885 278.329C289.668 277.235 290.224 275.998 290.521 274.69C290.818 273.383 290.849 272.03 290.614 270.71C290.378 269.39 289.88 268.13 289.149 267.001L141.181 36.3642C139.73 34.0681 137.417 32.4341 134.749 31.8204C132.081 31.2068 129.276 31.6636 126.948 33.0907Z" fill="#4B4680"/>
<path d="M141.475 57.2855L262.461 245.96C264.662 249.392 263.63 253.936 260.158 256.11L151.959 323.857C148.486 326.031 143.888 325.012 141.687 321.581L20.7014 132.906C18.5011 129.475 19.5324 124.93 23.0048 122.756L131.204 55.0094C134.677 52.8352 139.275 53.8542 141.475 57.2855Z" fill="#7872B8"/>
<path fill-rule="evenodd" clip-rule="evenodd" d="M131.201 54.9939L23.0264 122.686C21.3729 123.74 20.203 125.392 19.7672 127.288C19.3315 129.184 19.6646 131.173 20.6953 132.829L249.354 262.676L260.151 255.927C261.818 254.874 262.994 253.211 263.423 251.302C263.852 249.394 263.5 247.395 262.442 245.743L141.466 57.257C140.407 55.6131 138.732 54.4514 136.807 54.0271C134.883 53.6028 132.866 53.9505 131.201 54.9939Z" fill="#958FD3"/>
<path d="M98.8689 60.8297L101.124 64.3458C101.631 65.1376 101.393 66.1863 100.592 66.688L59.3782 92.4933C58.5769 92.995 57.5156 92.7598 57.0079 91.968L54.7532 88.4519C54.2455 87.6601 54.4834 86.6114 55.2848 86.1097L96.4986 60.3044C97.2999 59.8027 98.3612 60.0379 98.8689 60.8297Z" fill="#7872B8"/>
<path fill-rule="evenodd" clip-rule="evenodd" d="M46.5416 91.6075C46.1173 91.8728 45.7501 92.2182 45.4608 92.6238C45.1716 93.0294 44.9661 93.4873 44.8559 93.9714C44.7458 94.4555 44.7332 94.9563 44.819 95.4452C44.9047 95.9341 45.087 96.4015 45.3555 96.8207C45.6241 97.24 45.9736 97.6029 46.384 97.8887C46.7945 98.1745 47.2579 98.3776 47.7478 98.4864C48.2377 98.5953 48.7445 98.6077 49.2393 98.523C49.734 98.4382 50.2071 98.2581 50.6314 97.9927C51.4882 97.4568 52.0946 96.6065 52.317 95.6288C52.5395 94.6511 52.3597 93.6262 51.8174 92.7794C51.2751 91.9327 50.4145 91.3335 49.4251 91.1137C48.4357 90.894 47.3985 91.0716 46.5416 91.6075Z" fill="#7872B8"/>
<path d="M230.456 287.276L236.717 297.039C237.527 298.302 237.147 299.975 235.869 300.776L205.814 319.594C204.535 320.395 202.842 320.019 202.032 318.756L195.772 308.993C194.962 307.73 195.342 306.057 196.62 305.257L226.675 286.438C227.954 285.638 229.646 286.013 230.456 287.276Z" fill="#3C3869"/>
<path d="M264.806 268.828L268.396 274.426C268.868 275.161 268.647 276.135 267.903 276.601L250.664 287.395C249.92 287.86 248.935 287.642 248.463 286.907L244.873 281.308C244.402 280.573 244.623 279.599 245.367 279.133L262.605 268.34C263.349 267.874 264.335 268.092 264.806 268.828Z" fill="#3C3869"/>
<path d="M184.119 319.321L187.709 324.919C188.18 325.655 187.959 326.628 187.215 327.094L169.977 337.888C169.232 338.354 168.247 338.135 167.776 337.4L164.186 331.802C163.714 331.066 163.935 330.093 164.679 329.627L181.918 318.833C182.662 318.367 183.647 318.586 184.119 319.321Z" fill="#3C3869"/>
<path fill-rule="evenodd" clip-rule="evenodd" d="M267.471 168.797C257.247 166.534 234.753 168.797 229.068 171.99C221.87 175.788 204.53 175.061 195.737 175.465C192.792 175.465 188.13 172.03 181.586 174.738C177.128 176.597 161.137 173.929 161.137 176.354C161.137 185.811 171.444 182.174 177.496 182.457C177.496 182.457 182.895 180.557 176.76 183.144C170.626 185.73 173.693 191.226 153.162 197.935C140.525 201.976 138.889 211.594 147.641 208.119C150.299 207.028 167.558 201.976 168.376 199.632C172.098 199.632 163.223 203.673 160.933 206.624C157.299 210.154 154.038 214.04 151.199 218.222C150.136 220.768 145.228 227.638 151.199 226.911C153.939 226.588 158.602 216.363 164.655 212.888C178.56 204.805 170.748 213.655 165.554 218.99C163.877 220.728 154.185 236.974 161.219 234.387C169.767 231.235 180.564 206.341 180.932 217.858C180.932 217.858 169.235 245.703 180.932 236.004C184.735 232.811 185.022 217.252 192.915 212.403C206.616 203.795 202.73 201.734 206.82 198.379C212.505 193.691 248.045 200.198 256.224 200.198C261.296 200.198 283.258 199.268 283.258 192.115C283.135 185.892 274.342 170.292 267.471 168.797Z" fill="#FCD2D3"/>
<path fill-rule="evenodd" clip-rule="evenodd" d="M135.127 179.426C140.157 183.184 123.634 189.731 117.541 193.368C116.355 194.096 108.298 198.42 110.752 199.875C111.774 200.44 134.227 185.649 140.975 187.104C147.723 188.559 139.462 192.196 138.071 192.843C129.646 196.884 114.391 206.341 116.845 206.987C119.299 207.634 134.881 197.571 138.644 196.399C140.402 195.874 144.656 195.308 143.224 198.662C141.793 202.017 134.227 205.856 128.624 208.765C127.929 209.129 118.399 214.262 118.931 215.151C119.463 216.04 120.035 215.717 122.039 215.757C126.129 215.757 136.435 210.503 139.666 212.443C142.897 214.383 125.597 220.849 119.217 223.072C116.068 224.122 107.234 228.204 106.948 230.952C107.854 234.391 109.438 237.618 111.61 240.449C113.942 244.248 119.258 259.363 117.336 264.374C115.414 269.385 114.841 269.708 108.134 268.86C98.3595 267.607 96.3556 264.818 93.4518 256.049C91.8568 251.28 84.8224 225.577 86.9082 221.859C90.998 214.545 89.1985 211.069 88.9531 202.461C88.9531 196.803 80.2419 186.013 93.0429 183.588C94.3516 183.346 98.4413 182.416 99.0957 183.588C99.7501 184.76 96.3555 187.266 95.2922 187.912C93.4518 188.963 91.9386 190.62 94.2289 194.702C96.0693 198.016 99.6274 197.369 103.635 195.187C112.06 190.66 125.107 176.597 136.026 179.628L135.127 179.426Z" fill="#FCD2D3"/>
<path fill-rule="evenodd" clip-rule="evenodd" d="M235.039 47.7596C238.679 50.7906 231.808 49.3762 235.285 50.1036C242.278 51.4776 239.906 80.4134 231.195 75.2001C231.849 76.2104 233.69 92.0927 230.949 94.6791C222.238 102.762 184.122 127.01 175.288 112.299C170.625 104.5 148.05 41.9806 162.037 35.5145C166.781 33.1705 175.901 30.9882 182.077 28.7655C186.207 27.2702 199.908 23.2289 203.589 24.2393C214.999 27.149 231.563 32.3219 233.567 45.5773C233.981 46.3523 234.475 47.0836 235.039 47.7596Z" fill="#FCD2D3"/>
<path fill-rule="evenodd" clip-rule="evenodd" d="M149.113 17.2882C139.666 16.1567 154.512 32.3219 154.512 35.9186C155.52 42.7957 157.191 49.562 159.501 56.1251C161.792 60.6514 157.007 44.0012 159.501 39.475C160.483 37.7372 162.323 38.1009 170.38 38.1009C182.65 38.1009 195.819 38.1009 205.92 31.0286C211.646 26.9873 216.554 43.1525 219.212 47.4363C223.056 53.4174 222.361 63.6015 224.897 65.2585C229.927 68.2086 226.001 46.5068 236.921 52.1242C242.156 54.7915 241.583 41.8593 241.583 38.99C241.583 30.9074 238.516 14.7422 227.555 8.51859C192.792 -10.6372 181.382 21.4103 149.113 17.2882Z" fill="#7872B8"/>
<path fill-rule="evenodd" clip-rule="evenodd" d="M219.253 5.04325C204.408 -2.79688 179.296 -2.10986 168.418 11.4689C167.309 13.2449 165.803 14.747 164.017 15.8607C162.231 16.9743 160.211 17.67 158.111 17.8946C157.504 18.0556 156.986 18.4483 156.672 18.9863C156.358 19.5243 156.272 20.1637 156.435 20.7639C156.515 21.0558 156.653 21.3292 156.84 21.5684C157.028 21.8077 157.261 22.0081 157.527 22.1582C157.793 22.3083 158.086 22.4052 158.39 22.4433C158.694 22.4815 159.002 22.4601 159.297 22.3804C161.896 22.0291 164.386 21.1244 166.597 19.7289C168.807 18.3334 170.684 16.4804 172.098 14.2978C181.341 2.78012 203.59 2.17392 216.472 8.80166C216.978 9.08426 217.572 9.17347 218.14 9.05235C218.708 8.93123 219.211 8.60821 219.554 8.1446C219.898 7.68098 220.056 7.10905 220.001 6.53736C219.945 5.96566 219.679 5.43398 219.253 5.04325Z" fill="#7872B8"/>
<path fill-rule="evenodd" clip-rule="evenodd" d="M157.416 32.3219C153.326 35.4741 145.515 31.3924 149.932 21.0063C150.305 20.5075 150.463 19.8829 150.371 19.2693C150.279 18.6558 149.944 18.1032 149.441 17.7328C149.194 17.5513 148.914 17.4198 148.616 17.346C148.317 17.2721 148.007 17.2573 147.703 17.3023C147.399 17.3474 147.107 17.4515 146.844 17.6086C146.58 17.7657 146.351 17.9728 146.169 18.2178C138.644 34.383 152.181 42.021 160.565 35.757C160.793 35.5527 160.979 35.3059 161.111 35.0308C161.242 34.7558 161.318 34.4577 161.333 34.1538C161.348 33.8498 161.303 33.5458 161.199 33.2593C161.095 32.9727 160.936 32.7091 160.729 32.4836C160.522 32.258 160.272 32.0749 159.994 31.9447C159.716 31.8145 159.414 31.7398 159.106 31.7248C158.799 31.7098 158.491 31.7548 158.201 31.8572C157.911 31.9597 157.644 32.1176 157.416 32.3219Z" fill="#7872B8"/>
<path fill-rule="evenodd" clip-rule="evenodd" d="M297.123 79.2019C299.863 74.8777 300.558 68.3308 295.65 65.2594C293.177 64.0613 290.344 63.8053 287.692 64.5403C285.04 65.2753 282.754 66.9498 281.272 69.244C279.79 71.5383 279.215 74.2916 279.657 76.9782C280.099 79.6648 281.526 82.0965 283.667 83.8089C288.616 86.9208 294.342 83.5665 297.123 79.2019ZM306.12 97.7919C305.302 98.9234 304.116 101.631 305.507 102.763C306.897 103.894 309.147 102.076 309.924 101.025C310.701 99.9742 312.05 97.2261 310.619 96.0541C309.188 94.8821 306.938 96.6603 306.079 97.7919H306.12ZM333.317 130.122C332.255 130.883 331.355 131.844 330.67 132.95C329.986 134.056 329.529 135.285 329.328 136.566C329.126 137.848 329.184 139.156 329.496 140.415C329.809 141.674 330.371 142.86 331.15 143.903C332.047 145.136 333.171 146.192 334.462 147.015C336.128 147.803 337.984 148.114 339.82 147.914C341.656 147.714 343.398 147.011 344.85 145.883C346.485 144.793 347.767 143.26 348.543 141.468C349.319 139.676 349.556 137.702 349.226 135.78C348.806 134.585 348.214 133.455 347.468 132.426C346.726 131.316 345.759 130.369 344.629 129.645C343.499 128.922 342.23 128.437 340.902 128.22C339.573 128.004 338.214 128.061 336.908 128.389C335.603 128.716 334.381 129.306 333.317 130.122ZM339.534 123.495C333.563 127.859 325.26 129.354 319.412 124.101C314.504 118.887 318.921 110.239 322.929 105.915C327.632 100.54 336.262 96.9836 341.947 103.005C347.631 109.027 345.259 118.483 339.411 123.212L339.534 123.495ZM310.905 76.2113C312.255 74.1502 313.155 70.3514 310.578 68.7753C308.002 67.1992 304.812 69.4623 303.462 71.5638C302.112 73.6653 301.417 77.5045 303.953 79.121C306.488 80.7376 309.31 78.0703 310.619 76.0092L310.905 76.2113Z" fill="#CCE0FF"/>
</svg>
